<svg width="53" height="17" viewBox="0 0 53 17" fill="none" xmlns="http://www.w3.org/2000/svg">
<path d="M9.776 8.176H10.288L10.112 12H0.816V11.504H2.32V1.472H0.816V0.976H9.856L9.888 4.224H9.392C9.31733 3.296 9.06133 2.61867 8.624 2.192C8.18667 1.75467 7.472 1.52533 6.48 1.504L3.744 1.472V6.112H5.696C6.15467 6.112 6.496 5.97867 6.72 5.712C6.96533 5.37067 7.088 4.87467 7.088 4.224H7.584V8.656H7.088C7.088 8.02667 6.95467 7.536 6.688 7.184C6.432 6.832 6.10133 6.656 5.696 6.656H3.744V11.504L6.736 11.456C7.03467 11.456 7.392 11.376 7.808 11.216C8.23467 11.056 8.54933 10.8747 8.752 10.672C9.392 10.0747 9.73333 9.24267 9.776 8.176ZM15.5239 11.568V12H11.6199V11.568H12.5479C12.7932 11.568 12.9159 11.4453 12.9159 11.2L12.8999 1.968C12.8892 1.60533 12.7079 1.424 12.3559 1.424H11.6039V0.992H14.2279V11.2C14.2279 11.4453 14.3505 11.568 14.5959 11.568H15.5239ZM16.8384 5.488C16.7424 5.24267 16.5557 5.12 16.2784 5.12H15.7824V4.688H19.4784V5.12H18.7264C18.449 5.12 18.3104 5.22133 18.3104 5.424C18.3104 5.47733 18.3264 5.536 18.3584 5.6L20.2624 10.56L22.1504 5.808C22.2144 5.648 22.2464 5.504 22.2464 5.376C22.2464 5.20533 22.1557 5.12 21.9744 5.12H21.1744V4.688H24.0864V5.12H23.6704C23.3717 5.12 23.1264 5.34933 22.9344 5.808L20.2624 11.984C20.1024 12.496 19.937 12.96 19.7664 13.376C19.3397 14.3893 18.9557 15.0507 18.6144 15.36C18.273 15.68 18.0117 15.872 17.8304 15.936C17.649 16 17.4464 16.032 17.2224 16.032C17.009 16.032 16.7957 15.9787 16.5824 15.872C16.3797 15.7653 16.3104 15.5787 16.3744 15.312C16.417 14.9387 16.673 14.768 17.1424 14.8C17.2597 14.8427 17.4144 14.88 17.6064 14.912C17.7984 14.9547 17.9424 14.9547 18.0384 14.912C18.145 14.88 18.305 14.7573 18.5184 14.544C18.8277 14.1813 19.0357 13.84 19.1424 13.52C19.3237 13.136 19.4624 12.7467 19.5584 12.352C19.5477 12.2667 19.5157 12.144 19.4624 11.984C19.409 11.8133 19.3557 11.632 19.3024 11.44C19.2597 11.248 18.4384 9.264 16.8384 5.488ZM30.5685 9.744C30.5685 10.48 30.2805 11.0773 29.7045 11.536C29.1392 11.984 28.4885 12.208 27.7525 12.208C27.0272 12.208 26.3712 12.0693 25.7845 11.792C25.6138 11.728 25.5125 11.824 25.4805 12.08C25.2992 12.048 25.1765 12.048 25.1125 12.08V9.456H25.5765V9.92C25.5765 10.2613 25.7792 10.6347 26.1845 11.04C26.6005 11.4347 27.0752 11.6267 27.6085 11.616C28.1418 11.6053 28.5738 11.4933 28.9045 11.28C29.2352 11.0667 29.4005 10.752 29.4005 10.336C29.4005 9.92 29.1232 9.59467 28.5685 9.36C27.8112 9.09333 27.0752 8.816 26.3605 8.528C25.4752 8.16533 25.0325 7.59467 25.0325 6.816C25.0325 6.03733 25.3418 5.45067 25.9605 5.056C26.4725 4.71467 27.1392 4.544 27.9605 4.544C28.3018 4.544 28.8192 4.656 29.5125 4.88V4.576H29.9445V6.704H29.4805V6.368C29.4805 5.984 29.2992 5.67467 28.9365 5.44C28.5845 5.19467 28.1312 5.072 27.5765 5.072C27.0325 5.072 26.6325 5.216 26.3765 5.504C26.1738 5.76 26.0938 6.04267 26.1365 6.352C26.1898 6.66133 26.3445 6.89067 26.6005 7.04C26.7178 7.12533 27.1818 7.31733 27.9925 7.616C28.8138 7.904 29.4165 8.16533 29.8005 8.4C30.3125 8.752 30.5685 9.2 30.5685 9.744ZM33.2415 1.344C33.4762 1.344 33.6735 1.424 33.8335 1.584C34.0042 1.744 34.0895 1.94667 34.0895 2.192C34.1002 2.42667 34.0148 2.62933 33.8335 2.8C33.6522 2.97067 33.4495 3.056 33.2255 3.056C33.0015 3.056 32.7988 2.97067 32.6175 2.8C32.4468 2.62933 32.3615 2.43733 32.3615 2.224C32.3615 2 32.4468 1.79733 32.6175 1.616C32.7988 1.43467 33.0068 1.344 33.2415 1.344ZM33.9615 4.704V11.2C33.9615 11.4453 34.0788 11.568 34.3135 11.568H35.2415V12H31.3695V11.568H32.2975C32.5322 11.568 32.6495 11.4453 32.6495 11.2V5.504C32.6175 5.25867 32.5002 5.136 32.2975 5.136H31.3695V4.704H33.9615ZM43.1644 11.552V12H40.6044V10.688C39.655 11.6907 38.759 12.192 37.9164 12.192C37.351 12.192 36.8977 12.0267 36.5564 11.696C36.183 11.3653 35.9964 10.896 35.9964 10.288C35.9964 9.44533 36.3217 8.816 36.9724 8.4C37.463 8.10133 38.151 7.872 39.0364 7.712L40.6044 7.44C40.6257 6.68267 40.5617 6.128 40.4124 5.776C40.199 5.27467 39.831 5.024 39.3084 5.024C38.4017 5.024 37.943 5.328 37.9324 5.936C37.9324 6.04267 37.991 6.17067 38.1084 6.32C38.2364 6.45867 38.3004 6.53333 38.3004 6.544C38.311 6.704 38.231 6.83733 38.0604 6.944C37.9004 7.05067 37.751 7.088 37.6124 7.056C37.079 7.056 36.8177 6.76267 36.8284 6.176C36.839 5.57867 37.207 5.13067 37.9324 4.832C38.3804 4.66133 38.855 4.576 39.3564 4.576C40.199 4.576 40.8284 4.81067 41.2444 5.28C41.6604 5.792 41.8684 6.60267 41.8684 7.712V11.2C41.8684 11.3067 41.9057 11.392 41.9804 11.456C42.055 11.52 42.1404 11.552 42.2364 11.552H43.1644ZM40.6044 10.048V7.968C39.6764 8.08533 38.9137 8.26133 38.3164 8.496C38.039 8.60267 37.8097 8.8 37.6284 9.088C37.447 9.376 37.3564 9.69067 37.3564 10.032C37.3564 10.3733 37.4737 10.6613 37.7084 10.896C37.9537 11.1307 38.2417 11.2587 38.5724 11.28C38.9137 11.2907 39.271 11.1787 39.6444 10.944C40.0284 10.6987 40.3484 10.4 40.6044 10.048ZM52.6364 11.568V12H48.7324V11.568H49.6764C49.879 11.568 49.9964 11.4453 50.0284 11.2V7.408C50.0284 6.78933 49.8684 6.30933 49.5484 5.968C49.2284 5.616 48.8177 5.44 48.3164 5.44C47.815 5.44 47.351 5.60533 46.9244 5.936C46.519 6.27733 46.3164 6.59733 46.3164 6.896V11.2C46.3484 11.4453 46.471 11.568 46.6844 11.568H47.6124V12H43.7084V11.568H44.6364C44.8497 11.568 44.9724 11.4453 45.0044 11.2V5.664C44.9937 5.30133 44.8124 5.12 44.4604 5.12H43.7084V4.688H46.3324V5.12C46.3217 5.248 46.3164 5.39733 46.3164 5.568V5.888C46.4017 5.68533 46.6257 5.42933 46.9884 5.12C47.5324 4.69333 48.1244 4.48 48.7644 4.48C50.4817 4.48 51.3404 5.392 51.3404 7.216V11.2C51.3724 11.4453 51.495 11.568 51.7084 11.568H52.6364Z" fill="#BEAB48"/>
</svg>
